<svg id="Layer_1" data-name="Layer 1" xmlns="http://www.w3.org/2000/svg" viewBox="0 0 400 300" width="0" height="0" class="illustration styles_illustrationTablet__1DWOa"><title>_</title><ellipse cx="200" cy="150" rx="119.92" ry="104.49" fill="#e6e6e6" opacity="0.3"></ellipse><rect x="245.96" y="236.67" width="59.93" height="15.78" fill="#e6e6e6"></rect><rect x="232.86" y="221.24" width="59.93" height="15.78" fill="#e6e6e6" opacity="0.43"></rect><rect x="149.37" y="39.66" width="118.65" height="212.79" fill="#c9c9c9"></rect><rect x="159.19" y="63.92" width="98.21" height="149.75" fill="#fff"></rect><circle cx="209.05" cy="232.85" r="11.61" fill="#fff" opacity="0.56"></circle><rect x="198.66" y="47.98" width="33.27" height="4.85" opacity="0.12"></rect><circle cx="186.61" cy="50.93" r="5.42" fill="#fff"></circle><rect x="172.01" y="89.24" width="77.02" height="15.21" rx="5.02" fill="#24285b"></rect><path d="M238.65,97.45s-3.38,0-3.86,7.72,0,132,0,142.61-15.7,12.56-15.7,12.56H172V105.17c0-8.21,6.28-7.72,6.28-7.72Z" fill="#01BF97"></path><g opacity="0.5"><rect x="179.59" y="108.79" width="18.14" height="4.59" opacity="0.1"></rect><rect x="212.06" y="108.79" width="14.12" height="4.59" opacity="0.1"></rect><rect x="179.59" y="120.93" width="23.9" height="4.59" opacity="0.1"></rect><rect x="212.06" y="120.93" width="14.12" height="4.59" opacity="0.1"></rect><rect x="179.59" y="133.06" width="19.95" height="4.59" opacity="0.1"></rect><rect x="212.06" y="133.06" width="14.12" height="4.59" opacity="0.1"></rect><rect x="179.59" y="145.19" width="23.9" height="4.59" opacity="0.1"></rect><rect x="212.06" y="145.19" width="14.12" height="4.59" opacity="0.1"></rect><rect x="179.59" y="157.32" width="15.97" height="4.59" opacity="0.1"></rect><rect x="212.06" y="157.32" width="14.12" height="4.59" opacity="0.1"></rect><rect x="179.59" y="169.46" width="25.92" height="4.59" opacity="0.1"></rect><rect x="212.06" y="169.46" width="14.12" height="4.59" opacity="0.1"></rect><rect x="179.59" y="181.59" width="19.95" height="4.59" opacity="0.1"></rect><rect x="212.06" y="181.59" width="14.12" height="4.59" opacity="0.1"></rect><rect x="179.59" y="193.72" width="11.95" height="4.59" opacity="0.1"></rect><rect x="212.06" y="193.72" width="14.12" height="4.59" opacity="0.1"></rect><rect x="179.59" y="205.85" width="20.85" height="4.59" opacity="0.1"></rect><rect x="212.06" y="205.85" width="14.12" height="4.59" opacity="0.1"></rect><rect x="179.59" y="205.59" width="15.97" height="4.59" opacity="0.1"></rect><rect x="179.59" y="217.72" width="25.92" height="4.59" opacity="0.1"></rect><rect x="212.06" y="217.72" width="14.12" height="4.59" opacity="0.1"></rect><rect x="179.59" y="229.86" width="19.95" height="4.59" opacity="0.1"></rect><rect x="212.06" y="229.86" width="14.12" height="4.59" opacity="0.1"></rect><rect x="179.59" y="241.99" width="11.95" height="4.59" opacity="0.1"></rect><rect x="212.06" y="241.99" width="14.12" height="4.59" opacity="0.1"></rect></g><path d="M189,136.56H126.74a8.09,8.09,0,0,0-8.09,8.09V260.34h49.74s13,.48,16.66-14.25,4-108.32,4-108.32" fill="#01BF97"></path><path d="M189,136.56H126.74a8.09,8.09,0,0,0-8.09,8.09V260.34h49.74s13,.48,16.66-14.25,4-108.32,4-108.32" fill="#fff" opacity="0.44"></path><path d="M156.29,248.63H94.12a13.89,13.89,0,0,0,6.76,11.71h62.89S157.5,257.8,156.29,248.63Z" fill="#01BF97"></path><path d="M220.54,260.34s-7-.73-10.62-4.35-4.59-7.24-4.59-19.55V151.77a15.21,15.21,0,0,0-15.21-15.21H189a9.77,9.77,0,0,0-9.77,9.78v89.25c0,23.18-10.14,24.75-10.87,24.75Z" fill="#01BF97"></path><path d="M156.29,248.63H94.12a13.89,13.89,0,0,0,6.76,11.71h62.89S157.5,257.8,156.29,248.63Z" opacity="0.1"></path><path d="M220.54,260.34s-7-.73-10.62-4.35-4.59-7.24-4.59-19.55V151.77a15.21,15.21,0,0,0-15.21-15.21H189a9.77,9.77,0,0,0-9.77,9.78v89.25c0,23.18-10.14,24.75-10.87,24.75Z" opacity="0.1"></path><rect x="125.08" y="151.89" width="18.14" height="4.59" opacity="0.1"></rect><rect x="157.56" y="151.89" width="14.12" height="4.59" opacity="0.1"></rect><rect x="125.08" y="164.02" width="23.9" height="4.59" opacity="0.1"></rect><rect x="157.56" y="164.02" width="14.12" height="4.59" opacity="0.1"></rect><rect x="125.08" y="176.16" width="19.95" height="4.59" opacity="0.1"></rect><rect x="157.56" y="176.16" width="14.12" height="4.59" opacity="0.1"></rect><rect x="125.08" y="188.29" width="23.9" height="4.59" opacity="0.1"></rect><rect x="157.56" y="188.29" width="14.12" height="4.59" opacity="0.1"></rect><rect x="125.08" y="200.42" width="15.97" height="4.59" opacity="0.1"></rect><rect x="157.56" y="200.42" width="14.12" height="4.59" opacity="0.1"></rect><rect x="125.08" y="213.26" width="19.95" height="4.59" opacity="0.1"></rect><rect x="157.56" y="213.26" width="14.12" height="4.59" opacity="0.1"></rect><rect x="125.08" y="225.39" width="11.95" height="4.59" opacity="0.1"></rect><rect x="157.56" y="225.39" width="14.12" height="4.59" opacity="0.1"></rect><rect x="125.08" y="237.52" width="20.85" height="4.59" opacity="0.1"></rect><rect x="157.56" y="237.52" width="14.12" height="4.59" opacity="0.1"></rect><rect x="149.38" y="63.33" width="17.18" height="32.89" opacity="0.05"></rect><rect x="120.71" y="59.71" width="43.02" height="32.89" fill="#e6e6e6"></rect><g opacity="0.08"><path d="M268.06,56.1a20.26,20.26,0,0,0-3.62-1A19.65,19.65,0,1,0,268.06,93Z"></path></g><circle cx="264.71" cy="71.44" r="19.65" fill="#ffd200"></circle><path d="M265.34,61.61c.56,0,.73.19.73.75v1.18a5.41,5.41,0,0,1,4.44,3.36c.29.58.17.89-.48,1.18l-1.19.54c-.55.26-.82.14-1.13-.44a3,3,0,0,0-3.09-1.86c-2.06,0-3,.6-3,2a1.83,1.83,0,0,0,1.67,1.62,14.1,14.1,0,0,0,1.74.27,11.29,11.29,0,0,1,3.21.62,4.48,4.48,0,0,1,1.43.78A4.68,4.68,0,0,1,271,75c0,2.63-1.77,4.42-4.88,4.88v1.26c0,.55-.17.75-.73.75H264c-.55,0-.75-.2-.75-.75V79.87a5.49,5.49,0,0,1-4.83-3.72c-.19-.53,0-.89.56-1.11l1.18-.43c.6-.22.87-.07,1.14.53a3.15,3.15,0,0,0,3.26,2c2.22,0,3.33-.7,3.33-2.13a1.48,1.48,0,0,0-1-1.5,8.19,8.19,0,0,0-2.39-.45,10.87,10.87,0,0,1-3.24-.71,3.89,3.89,0,0,1-2.7-4.08c0-2.61,1.64-4.35,4.73-4.76V62.36c0-.56.2-.75.75-.75Z" fill="#fff"></path><rect x="239.22" y="136.58" width="28.8" height="58.64" opacity="0.05"></rect><rect x="246" y="131.58" width="50.77" height="58.64" fill="#e6e6e6"></rect><rect x="252.54" y="139.16" width="37.69" height="13.38" fill="#fff" opacity="0.44"></rect><rect x="252.54" y="157.29" width="17.63" height="11.66" fill="#c9c9c9"></rect><rect x="272.6" y="157.29" width="17.63" height="11.66" fill="#c9c9c9"></rect><rect x="252.54" y="171.99" width="17.63" height="11.66" fill="#c9c9c9"></rect><rect x="272.6" y="171.99" width="17.63" height="11.66" fill="#c9c9c9"></rect><rect x="129" y="74.83" width="5.65" height="9.9" fill="#ffd200"></rect><rect x="139.4" y="72.35" width="5.65" height="12.38" fill="#01BF97"></rect><rect x="149.8" y="67.58" width="5.65" height="17.15" fill="#24285b"></rect><path d="M265.65,248.45s-8-2.19-9.79-9.67c0,0,12.45-2.52,12.81,10.33Z" fill="#01BF97" opacity="0.58"></path><path d="M266.63,247.66s-5.61-8.88-.67-17.18c0,0,9.47,6,5.26,17.19Z" fill="#01BF97" opacity="0.73"></path><path d="M268.08,247.66s3-9.37,11.94-11.15c0,0,1.68,6.09-5.81,11.18Z" fill="#01BF97"></path><polygon points="262.25 247.45 263.88 258.6 274.14 258.64 275.65 247.51 262.25 247.45" fill="#24285b"></polygon></svg>